<svg xmlns="http://www.w3.org/2000/svg" width="24" height="24" viewBox="0 0 24 24" fill="none">
  <rect width="24" height="24" rx="6" fill="#102A43" />
  <path d="M12 4a8 8 0 100 16 8 8 0 000-16zm6 8c0 1.3-.31 2.52-.86 3.59h-2.2c.27-1.05.43-2.27.46-3.59h2.6zM9.39 8.41A13.6 13.6 0 019.9 6.4a6.05 6.05 0 00-2.3 2.01h1.79zm-2.9 4.18a18.7 18.7 0 01.42-2.59h2.49a20.4 20.4 0 00-.05 2.59H6.5zm.32 1.5h2.6c.03 1.32.19 2.54.46 3.59H7.69A8.02 8.02 0 016.82 14.09zM12 6.14c.3.6.56 1.32.75 2.14h-1.5c.19-.82.45-1.55.75-2.14zM10.5 12c0-.9.03-1.76.08-2.59h2.84c.05.83.08 1.69.08 2.59 0 .9-.03 1.76-.08 2.59h-2.84A36.6 36.6 0 0110.5 12zm.75 5.86c-.3-.6-.56-1.32-.75-2.14h1.5c-.19.82-.45 1.55-.75 2.14zM14.1 8.41h1.79a6.05 6.05 0 00-2.3-2.01c.2.5.38 1.22.51 2.01z" fill="#5EA0EF" />
</svg>